<svg width="170" height="143" viewBox="0 0 170 143" fill="none" xmlns="http://www.w3.org/2000/svg">
<path fill-rule="evenodd" clip-rule="evenodd" d="M129 71.8704C129 39.8379 103.033 13.8704 71 13.8704C38.9675 13.8704 13 39.8379 13 71.8704C13 103.903 38.9675 129.87 71 129.87C103.033 129.87 129 103.903 129 71.8704ZM141.401 62.6032C136.86 27.7698 107.071 0.870422 71 0.870422C31.7878 0.870422 0 32.6582 0 71.8704C0 111.083 31.7878 142.87 71 142.87C107.071 142.87 136.86 115.971 141.401 81.1377C142.076 81.29 142.779 81.3704 143.5 81.3704H146.972V84.8704C146.972 90.3933 151.505 94.8704 157.028 94.8704V81.3704H160.5C165.747 81.3704 170 77.1171 170 71.8704C170 66.6237 165.747 62.3704 160.5 62.3704H143.5C142.779 62.3704 142.076 62.4508 141.401 62.6032Z" fill="white"/>
<path fill-rule="evenodd" clip-rule="evenodd" d="M123.151 81.3704H111.888V90.1546C106.777 90.1546 102.514 86.3199 101.907 81.3704H91.9525C88.3365 89.333 80.3149 94.8704 71 94.8704C58.2975 94.8704 48 84.573 48 71.8704C48 59.1679 58.2974 48.8704 71 48.8704C80.3149 48.8704 88.3365 54.4078 91.9525 62.3704H123.151C118.674 37.6327 97.0282 18.8704 71 18.8704C41.7289 18.8704 18 42.5993 18 71.8704C18 101.142 41.7289 124.87 71 124.87C97.0282 124.87 118.674 106.108 123.151 81.3704ZM71 84.8704C63.8203 84.8704 58 79.0501 58 71.8704C58 64.6907 63.8203 58.8704 71 58.8704C78.1797 58.8704 84 64.6907 84 71.8704C84 79.0501 78.1797 84.8704 71 84.8704Z" fill="white"/>
</svg>
